<svg xmlns="http://www.w3.org/2000/svg" viewBox="0 0 1200 900" role="img" aria-labelledby="title desc">
  <title id="title">Bahamas Wedding Planner project preview</title>
  <desc id="desc">A branded portfolio cover for the Bahamas Wedding Planner website project.</desc>
  <defs>
    <linearGradient id="bg" x1="0%" y1="0%" x2="100%" y2="100%">
      <stop offset="0%" stop-color="#0f172a" />
      <stop offset="100%" stop-color="#0f766e" />
    </linearGradient>
    <linearGradient id="card" x1="0%" y1="0%" x2="100%" y2="100%">
      <stop offset="0%" stop-color="#f8fafc" />
      <stop offset="100%" stop-color="#ecfeff" />
    </linearGradient>
  </defs>
  <rect width="1200" height="900" fill="url(#bg)" />
  <circle cx="960" cy="760" r="200" fill="#f59e0b" fill-opacity="0.22" />
  <circle cx="210" cy="140" r="120" fill="#67e8f9" fill-opacity="0.22" />
  <rect x="120" y="120" width="960" height="660" rx="42" fill="url(#card)" />
  <rect x="170" y="182" width="220" height="28" rx="14" fill="#f59e0b" fill-opacity="0.22" />
  <rect x="170" y="280" width="420" height="24" rx="12" fill="#cbd5e1" />
  <rect x="170" y="328" width="340" height="24" rx="12" fill="#d1fae5" />
  <rect x="170" y="376" width="300" height="24" rx="12" fill="#e2e8f0" />
  <rect x="720" y="210" width="250" height="410" rx="125" fill="#164e63" />
  <circle cx="845" cy="290" r="42" fill="#f59e0b" />
  <circle cx="805" cy="360" r="22" fill="#ffffff" fill-opacity="0.8" />
  <circle cx="885" cy="360" r="22" fill="#ffffff" fill-opacity="0.8" />
  <rect x="770" y="420" width="150" height="120" rx="34" fill="#ffffff" fill-opacity="0.16" />
  <text x="170" y="226" fill="#0f172a" font-family="Arial, sans-serif" font-size="26" font-weight="700" letter-spacing="4">WIX DEVELOPMENT</text>
  <text x="170" y="500" fill="#0f172a" font-family="Arial, sans-serif" font-size="70" font-weight="700">Bahamas Wedding Planner</text>
  <text x="170" y="559" fill="#334155" font-family="Arial, sans-serif" font-size="28">Elegant booking journey with destination storytelling and polished visuals.</text>
  <text x="170" y="694" fill="#0f766e" font-family="Arial, sans-serif" font-size="30" font-weight="700">Sortiq Solutions Portfolio</text>
</svg>
