<svg xmlns="http://www.w3.org/2000/svg" viewBox="0 0 1200 900" role="img" aria-labelledby="title desc">
  <title id="title">Byron Shire Respite project preview</title>
  <desc id="desc">A branded portfolio cover for the Byron Shire Respite website project.</desc>
  <defs>
    <linearGradient id="bg" x1="0%" y1="0%" x2="100%" y2="100%">
      <stop offset="0%" stop-color="#022c22" />
      <stop offset="100%" stop-color="#155e75" />
    </linearGradient>
  </defs>
  <rect width="1200" height="900" fill="url(#bg)" />
  <circle cx="980" cy="170" r="130" fill="#f97316" fill-opacity="0.18" />
  <rect x="110" y="120" width="980" height="660" rx="38" fill="#f8fafc" />
  <rect x="160" y="190" width="250" height="28" rx="14" fill="#14b8a6" fill-opacity="0.24" />
  <text x="160" y="230" fill="#134e4a" font-family="Arial, sans-serif" font-size="26" font-weight="700" letter-spacing="4">WEBFLOW</text>
  <text x="160" y="470" fill="#0f172a" font-family="Arial, sans-serif" font-size="72" font-weight="700">Byron Shire Respite</text>
  <text x="160" y="529" fill="#334155" font-family="Arial, sans-serif" font-size="28">Support-focused website with calm visuals, clear pathways, and service trust cues.</text>
  <rect x="160" y="290" width="370" height="22" rx="11" fill="#d1d5db" />
  <rect x="160" y="336" width="320" height="22" rx="11" fill="#ccfbf1" />
  <rect x="160" y="382" width="280" height="22" rx="11" fill="#e2e8f0" />
  <rect x="690" y="230" width="280" height="420" rx="24" fill="#134e4a" />
  <rect x="725" y="272" width="210" height="150" rx="22" fill="#f0fdfa" />
  <rect x="725" y="450" width="100" height="100" rx="20" fill="#2dd4bf" />
  <rect x="840" y="450" width="95" height="100" rx="20" fill="#99f6e4" />
  <text x="160" y="694" fill="#0f766e" font-family="Arial, sans-serif" font-size="30" font-weight="700">Sortiq Solutions Portfolio</text>
</svg>
