<svg xmlns="http://www.w3.org/2000/svg" viewBox="0 0 1200 900" role="img" aria-labelledby="title desc">
  <title id="title">Kebaonish Wellness project preview</title>
  <desc id="desc">A branded portfolio cover for the Kebaonish Wellness digital project.</desc>
  <defs>
    <linearGradient id="bg" x1="0%" y1="0%" x2="100%" y2="100%">
      <stop offset="0%" stop-color="#172554" />
      <stop offset="100%" stop-color="#4f46e5" />
    </linearGradient>
  </defs>
  <rect width="1200" height="900" fill="url(#bg)" />
  <circle cx="250" cy="170" r="120" fill="#c4b5fd" fill-opacity="0.22" />
  <circle cx="1010" cy="750" r="180" fill="#f97316" fill-opacity="0.18" />
  <rect x="120" y="120" width="960" height="660" rx="42" fill="#eef2ff" />
  <rect x="170" y="188" width="260" height="28" rx="14" fill="#6366f1" fill-opacity="0.22" />
  <rect x="170" y="290" width="390" height="22" rx="11" fill="#cbd5e1" />
  <rect x="170" y="336" width="340" height="22" rx="11" fill="#c7d2fe" />
  <rect x="170" y="382" width="300" height="22" rx="11" fill="#e2e8f0" />
  <rect x="690" y="235" width="280" height="410" rx="28" fill="#312e81" />
  <circle cx="830" cy="340" r="88" fill="#f8fafc" fill-opacity="0.14" />
  <rect x="745" y="475" width="170" height="18" rx="9" fill="#c4b5fd" />
  <rect x="745" y="515" width="130" height="18" rx="9" fill="#ffffff" fill-opacity="0.55" />
  <rect x="745" y="560" width="180" height="26" rx="13" fill="#f97316" />
  <text x="170" y="230" fill="#312e81" font-family="Arial, sans-serif" font-size="26" font-weight="700" letter-spacing="4">REACT JS DEVELOPMENT</text>
  <text x="170" y="502" fill="#0f172a" font-family="Arial, sans-serif" font-size="72" font-weight="700">Kebaonish Wellness</text>
  <text x="170" y="561" fill="#334155" font-family="Arial, sans-serif" font-size="28">Modern wellness experience with interactive sections and responsive performance.</text>
  <text x="170" y="694" fill="#4f46e5" font-family="Arial, sans-serif" font-size="30" font-weight="700">Sortiq Solutions Portfolio</text>
</svg>
