<svg xmlns="http://www.w3.org/2000/svg" viewBox="0 0 1200 900" role="img" aria-labelledby="title desc">
  <title id="title">Pinstripe Recruitment project preview</title>
  <desc id="desc">A branded portfolio cover for the Pinstripe Recruitment website project.</desc>
  <defs>
    <linearGradient id="bg" x1="0%" y1="0%" x2="100%" y2="100%">
      <stop offset="0%" stop-color="#071b34" />
      <stop offset="100%" stop-color="#173d73" />
    </linearGradient>
    <linearGradient id="card" x1="0%" y1="0%" x2="100%" y2="100%">
      <stop offset="0%" stop-color="#ffffff" stop-opacity="0.96" />
      <stop offset="100%" stop-color="#dbeafe" stop-opacity="0.94" />
    </linearGradient>
  </defs>
  <rect width="1200" height="900" fill="url(#bg)" />
  <circle cx="1040" cy="140" r="170" fill="#f97316" fill-opacity="0.18" />
  <circle cx="170" cy="760" r="210" fill="#60a5fa" fill-opacity="0.14" />
  <rect x="110" y="120" width="980" height="660" rx="36" fill="url(#card)" />
  <rect x="160" y="190" width="250" height="28" rx="14" fill="#f97316" fill-opacity="0.18" />
  <rect x="160" y="290" width="410" height="24" rx="12" fill="#cbd5e1" />
  <rect x="160" y="338" width="360" height="24" rx="12" fill="#dbeafe" />
  <rect x="160" y="386" width="300" height="24" rx="12" fill="#e2e8f0" />
  <rect x="700" y="230" width="270" height="340" rx="30" fill="#082f49" />
  <rect x="740" y="280" width="190" height="20" rx="10" fill="#f97316" />
  <rect x="740" y="328" width="145" height="14" rx="7" fill="#7dd3fc" />
  <rect x="740" y="366" width="160" height="14" rx="7" fill="#38bdf8" fill-opacity="0.65" />
  <rect x="740" y="420" width="135" height="110" rx="22" fill="#ffffff" fill-opacity="0.12" />
  <text x="160" y="235" fill="#0f172a" font-family="Arial, sans-serif" font-size="26" font-weight="700" letter-spacing="4">WORDPRESS DEVELOPMENT</text>
  <text x="160" y="505" fill="#0f172a" font-family="Arial, sans-serif" font-size="74" font-weight="700">Pinstripe Recruitment</text>
  <text x="160" y="564" fill="#334155" font-family="Arial, sans-serif" font-size="28">Hiring-focused website with clear service pages and conversion-first UX.</text>
  <text x="160" y="694" fill="#f97316" font-family="Arial, sans-serif" font-size="30" font-weight="700">Sortiq Solutions Portfolio</text>
</svg>
