<svg version="1.1" id="Layer_1" xmlns="http://www.w3.org/2000/svg" xmlns:xlink="http://www.w3.org/1999/xlink" x="0px" y="0px"
	 width="100%" viewBox="0 0 1820 592" enable-background="new 0 0 1820 592" xml:space="preserve">
<path fill="#FEFEFE" opacity="1.000000" stroke="none" 
	d="
M1372.000000,593.000000 
	C914.666687,593.000000 457.833344,593.000000 1.000000,593.000000 
	C1.000000,395.666656 1.000000,198.333328 1.000000,1.000000 
	C607.666687,1.000000 1214.333374,1.000000 1821.000000,1.000000 
	C1821.000000,198.333328 1821.000000,395.666656 1821.000000,593.000000 
	C1671.500000,593.000000 1522.000000,593.000000 1372.000000,593.000000 
M265.927429,200.712830 
	C266.207825,200.892181 266.488220,201.071533 267.048706,201.858963 
	C275.618378,208.995544 284.188019,216.132126 293.084290,223.855759 
	C295.288086,225.603180 297.518921,227.317764 299.691284,229.103424 
	C312.714264,239.808121 325.723846,250.529144 338.921997,261.720520 
	C339.202057,261.899994 339.482117,262.079468 340.055542,262.858673 
	C345.355347,268.387451 350.843109,273.749725 355.917023,279.478546 
	C367.585144,292.652679 376.523163,307.153442 378.614838,325.234558 
	C379.104675,329.468903 381.339996,333.794800 383.734711,337.447571 
	C387.463959,343.136017 391.947357,348.341187 396.259979,353.629791 
	C397.672821,355.362335 399.548492,356.717407 401.375977,358.395203 
	C402.346954,357.351471 403.028229,356.837769 403.426849,356.158234 
	C410.417816,344.240173 415.312134,331.637543 415.999725,317.650116 
	C417.074371,295.790649 410.087616,276.352661 398.013702,258.544434 
	C387.008545,242.312439 373.514343,228.238525 358.732025,215.471451 
	C346.151520,204.606018 333.073151,194.316986 319.864899,183.201614 
	C305.326569,171.053131 290.788239,158.904663 276.037994,146.114899 
	C271.409790,138.838943 265.886780,131.973068 262.327881,124.207108 
	C253.120728,104.115891 258.010071,82.682678 273.938232,67.521210 
	C287.464447,54.646011 304.155151,49.772209 322.065826,48.099083 
	C351.231140,45.374584 379.494873,50.476555 405.933929,62.183846 
	C492.662811,100.587639 544.354553,166.472626 557.016174,261.100433 
	C563.718933,311.194305 552.620422,358.174011 526.887878,401.531067 
	C503.965240,440.153687 471.584015,469.100800 432.765686,491.119843 
	C420.241943,498.223816 409.635803,507.395966 401.307220,519.120667 
	C400.180145,520.707275 399.959839,522.938049 399.319672,524.870544 
	C401.378265,525.074280 403.551239,525.799072 405.472595,525.377441 
	C410.005524,524.382690 414.587830,523.245972 418.853943,521.459351 
	C460.084381,504.192322 495.005280,478.169769 522.898743,443.392303 
	C578.048584,374.631470 595.314575,296.961365 569.843750,212.496841 
	C542.060730,120.364876 479.678833,61.136417 387.236145,34.523331 
	C354.848999,25.199476 321.765778,22.899200 288.714020,33.063091 
	C245.672134,46.299084 218.076340,87.550850 224.838776,126.600922 
	C228.353699,146.897980 235.703125,165.235184 248.940277,181.863815 
	C254.541412,187.988068 260.142548,194.112335 265.927429,200.712830 
M247.926163,201.178604 
	C246.975311,200.247849 246.040817,199.299667 245.070923,198.389191 
	C239.196350,192.874619 238.432709,192.888550 234.031509,199.873184 
	C224.379852,215.190231 223.044067,232.130524 225.474411,249.438721 
	C228.526123,271.171936 238.877182,289.676239 252.783890,306.248657 
	C274.490387,332.115997 301.569305,351.771149 329.095551,371.835236 
	C336.333191,378.710785 343.895630,385.279053 350.746490,392.520508 
	C369.894623,412.760406 378.950073,436.590942 375.004517,464.651337 
	C371.674561,488.334015 359.219116,505.203522 336.407349,512.985352 
	C309.256256,522.247437 281.602997,520.642151 254.094620,514.270935 
	C214.282410,505.050049 179.466660,485.942139 149.123322,458.962524 
	C87.295731,403.988983 59.488712,335.049957 70.630371,252.883942 
	C80.325111,181.388428 116.717125,125.475197 177.872025,86.218575 
	C193.274612,76.331337 208.397919,65.998100 223.436981,55.563438 
	C227.055130,53.053028 229.992523,49.462559 232.882309,46.062267 
	C233.737976,45.055424 234.011795,42.600140 233.360718,41.541275 
	C232.738663,40.529636 230.542557,40.024593 229.080139,40.100636 
	C226.963470,40.210697 224.851425,40.939556 222.794235,41.585430 
	C185.767578,53.210258 152.720200,71.967621 125.367516,99.454491 
	C64.580322,160.539856 38.480354,234.193817 48.959053,320.000336 
	C55.360607,372.420532 77.547531,417.951599 113.844154,456.056061 
	C159.604462,504.095551 215.561844,532.799927 281.930481,539.445435 
	C312.827759,542.539185 342.506500,537.521545 368.946075,519.990173 
	C403.867126,496.834991 418.228516,463.842773 413.698029,422.602051 
	C409.692596,386.141266 387.881500,360.380066 360.921936,337.169189 
	C351.889923,330.096161 342.908356,322.957642 333.815338,315.963898 
	C315.363800,301.772217 296.239166,288.363525 280.498352,270.987610 
	C267.499512,256.638550 259.444946,239.952835 258.110535,220.438385 
	C257.575806,212.618484 254.564606,206.386337 247.926163,201.178604 
M1770.015869,521.032593 
	C1770.138794,517.376160 1770.363159,513.719788 1770.365967,510.063324 
	C1770.375000,498.036743 1765.292236,489.006714 1754.632568,483.121674 
	C1749.250732,480.150360 1744.067261,476.817719 1738.816040,473.612366 
	C1733.128296,470.140594 1731.378784,465.759918 1732.681763,459.200104 
	C1733.291016,456.132843 1735.038574,453.834442 1737.925171,454.491119 
	C1739.688354,454.892212 1741.706543,457.464508 1742.198730,459.417389 
	C1743.015625,462.656982 1742.695312,466.183289 1742.846313,469.424316 
	C1751.627319,469.424316 1759.906738,469.424316 1768.782837,469.424316 
	C1768.552490,465.197266 1768.421509,461.258026 1768.106934,457.333496 
	C1767.425537,448.834412 1763.034302,443.062561 1754.997681,440.223755 
	C1746.525024,437.230957 1737.822754,436.395721 1728.922607,437.853729 
	C1718.843384,439.504791 1710.231812,443.242676 1707.182983,454.118713 
	C1703.192261,468.354523 1706.537842,481.091064 1716.217041,487.982727 
	C1722.845703,492.702423 1729.844727,496.898865 1736.618530,501.418732 
	C1743.097168,505.741608 1745.202271,511.521973 1743.391235,519.074890 
	C1742.583496,522.443298 1740.873291,524.464600 1737.166138,524.112061 
	C1733.616699,523.774475 1733.046509,521.154419 1732.991943,518.352844 
	C1732.898926,513.571899 1732.966187,508.787872 1732.966187,503.481018 
	C1728.098511,503.481018 1723.798706,503.480988 1719.499023,503.480988 
	C1715.239502,503.480988 1710.980103,503.481018 1706.836304,503.481018 
	C1706.836304,508.653900 1706.566772,513.144226 1706.888428,517.591858 
	C1707.753540,529.554016 1713.785767,537.337646 1725.602417,539.725281 
	C1732.801147,541.179871 1740.423706,540.538086 1748.634155,540.917969 
	C1750.538086,540.360535 1752.472534,539.890076 1754.340576,539.230774 
	C1762.687988,536.284363 1768.868286,531.373596 1770.015869,521.032593 
M1655.185791,379.173340 
	C1656.016479,394.872620 1661.735352,403.511963 1679.747925,406.822296 
	C1684.631226,407.719788 1689.692749,407.929626 1694.675293,407.958435 
	C1717.171997,408.088684 1739.669556,408.040680 1762.166870,408.056732 
	C1763.281616,408.057526 1764.396484,408.056824 1765.669434,408.056824 
	C1765.669434,395.157074 1765.669434,382.748688 1765.669434,369.853241 
	C1763.639771,369.853241 1761.852173,369.853729 1760.064575,369.853180 
	C1749.732544,369.849884 1739.396851,370.013733 1729.069336,369.796112 
	C1718.586060,369.575256 1714.605835,364.823029 1715.463379,353.971893 
	C1717.791016,353.308136 1720.186890,352.642181 1722.572754,351.941803 
	C1745.902710,345.093536 1759.465454,329.493622 1762.914551,305.589081 
	C1764.598755,293.916840 1765.629395,282.057556 1765.754761,270.270142 
	C1766.155396,232.612778 1766.171387,194.948410 1765.953369,157.288940 
	C1765.877319,144.147339 1765.288574,130.947968 1763.889893,117.886780 
	C1760.495117,86.188904 1744.236450,63.276611 1714.397705,51.597736 
	C1685.464355,40.273319 1655.754395,39.933979 1626.498169,50.686295 
	C1598.853516,60.846275 1581.761475,80.796295 1576.610352,109.913544 
	C1574.532349,121.659798 1573.671631,133.772186 1573.701782,145.714294 
	C1573.827759,195.520035 1573.803101,245.343933 1575.191650,295.123291 
	C1576.370972,337.406342 1604.288574,360.552063 1635.822754,367.574677 
	C1642.095581,368.971649 1648.526733,369.658325 1655.145996,370.714172 
	C1655.145996,373.281982 1655.145996,375.768829 1655.185791,379.173340 
M1110.500000,49.920387 
	C1092.090454,49.920387 1073.681030,49.920387 1055.327637,49.920387 
	C1055.327637,156.930847 1055.327637,263.176331 1055.327637,369.463379 
	C1082.838745,369.463379 1110.054932,369.463379 1137.797363,369.463379 
	C1137.797363,321.737335 1137.797363,274.348938 1137.797363,226.915176 
	C1140.638672,226.915176 1142.958740,226.799210 1145.263916,226.934814 
	C1156.482422,227.594742 1161.036499,231.976959 1162.044189,243.257431 
	C1162.532837,248.726990 1162.970581,254.222015 1163.002930,259.708038 
	C1163.207764,294.537476 1163.293335,329.367615 1163.416870,364.197540 
	C1163.423096,365.966919 1163.417603,367.736389 1163.417603,369.508301 
	C1189.472534,369.508301 1214.884399,369.508301 1240.198242,369.508301 
	C1240.418335,368.915344 1240.629395,368.613800 1240.627686,368.313477 
	C1240.402710,328.822571 1240.652954,289.320190 1239.721802,249.845703 
	C1239.232178,229.095642 1228.290405,214.526642 1208.600220,207.017319 
	C1205.856079,205.970779 1203.112061,204.923843 1199.598877,203.583694 
	C1202.421265,202.911346 1204.313599,202.443497 1206.213867,202.010559 
	C1223.812744,198.000824 1234.488037,187.162888 1237.757568,169.418732 
	C1241.563843,148.762543 1241.640259,128.013870 1238.431274,107.257294 
	C1233.977539,78.449829 1215.826660,53.280231 1177.422852,51.819870 
	C1155.456299,50.984550 1133.474731,50.539764 1110.500000,49.920387 
M1023.890015,268.491272 
	C1023.886414,228.679062 1024.009644,188.866180 1023.793701,149.055115 
	C1023.736938,138.583420 1023.116516,128.061371 1021.916382,117.659180 
	C1018.143372,84.957184 1001.173889,61.894169 970.044556,50.529007 
	C944.116516,41.062836 917.431396,40.743137 890.986145,48.276108 
	C866.240417,55.324963 847.529663,70.424843 838.740417,94.985657 
	C834.666870,106.368767 832.596863,118.976662 832.271790,131.100433 
	C831.196106,171.220108 831.098389,211.372208 831.107971,251.511749 
	C831.111938,267.980011 831.805969,284.491943 833.138672,300.906647 
	C835.657166,331.926788 851.101196,354.667450 879.803894,366.928406 
	C909.817749,379.749390 940.912781,380.070221 971.361755,368.827515 
	C997.778198,359.073761 1015.215881,339.897980 1020.380676,311.728699 
	C1022.916321,297.898865 1022.799561,283.582703 1023.890015,268.491272 
M654.500122,255.751129 
	C643.049805,255.751129 631.599487,255.751129 619.870422,255.751129 
	C619.279297,275.833344 619.347839,295.355286 622.709717,314.857178 
	C626.811340,338.650238 639.648865,355.479797 661.452881,365.125946 
	C694.867615,379.908752 729.043335,380.407562 762.983032,367.425140 
	C787.190430,358.165527 802.568665,340.650665 805.190369,314.078766 
	C806.510864,300.695923 806.757080,287.168915 806.795593,273.705139 
	C806.896545,238.419891 793.019836,210.605637 762.454346,191.694946 
	C746.468872,181.804810 731.105469,170.900391 715.026917,161.171646 
	C693.559204,148.182068 693.545166,124.301147 698.850830,105.377983 
	C700.717590,98.720009 706.553223,95.943390 713.445251,96.905350 
	C718.903503,97.667183 722.509155,101.568047 722.942505,108.617729 
	C723.616150,119.578659 723.703247,130.575882 724.020691,141.558228 
	C724.071655,143.321304 724.027771,145.087112 724.027771,146.876251 
	C750.135559,146.876251 775.577881,146.876251 802.027893,146.876251 
	C801.289734,132.852570 800.926147,119.057846 799.762634,105.330917 
	C797.601074,79.829620 784.316833,62.163078 760.531860,52.881775 
	C727.016052,39.803364 693.177307,39.689091 659.664612,52.651157 
	C638.378662,60.884155 625.650513,76.903831 620.932190,99.313454 
	C617.815857,114.114578 617.283630,129.062988 618.177002,144.067520 
	C619.786743,171.104767 630.117004,193.653427 652.777283,209.635071 
	C655.768982,211.744995 658.774353,213.835739 661.788452,215.913559 
	C676.992188,226.394592 692.276367,236.761200 707.373169,247.393936 
	C714.044373,252.092484 721.066040,256.989014 723.899902,264.984650 
	C729.311279,280.252441 729.588379,296.031525 725.837830,311.715759 
	C724.225891,318.456329 718.403931,321.515564 710.645691,320.998352 
	C704.055847,320.559021 700.029053,317.196747 699.030151,310.108337 
	C698.127808,303.705200 697.858276,297.182251 697.748779,290.704712 
	C697.554932,279.244110 697.694458,267.777893 697.694458,255.750198 
	C683.384399,255.750198 669.442261,255.750198 654.500122,255.751129 
M1258.811035,69.500252 
	C1258.811035,84.108513 1258.811035,98.716766 1258.811035,113.900482 
	C1275.400391,113.900482 1291.436157,113.900482 1307.830811,113.900482 
	C1307.830811,199.413864 1307.830811,284.345428 1307.830811,369.538849 
	C1335.788086,369.538849 1363.369873,369.538849 1391.426025,369.538849 
	C1391.426025,284.341553 1391.426025,199.273605 1391.426025,113.600037 
	C1407.927734,113.600037 1423.967773,113.600037 1440.014160,113.600037 
	C1440.014160,92.074165 1440.014160,71.156349 1440.014160,50.228832 
	C1379.521240,50.228832 1319.299561,50.228832 1258.810913,50.228832 
	C1258.810913,56.537464 1258.810913,62.518921 1258.811035,69.500252 
M1459.385986,354.491333 
	C1459.385986,359.439331 1459.385986,364.387360 1459.385986,369.400513 
	C1487.153564,369.400513 1514.343872,369.400513 1541.498657,369.400513 
	C1541.498657,262.783020 1541.498657,156.562027 1541.498657,50.298019 
	C1514.013916,50.298019 1486.829590,50.298019 1459.387207,50.298019 
	C1459.387207,151.628326 1459.387207,252.561127 1459.385986,354.491333 
M1629.685181,455.502991 
	C1629.685181,450.221741 1629.685181,444.940491 1629.685181,439.482117 
	C1621.565552,439.482117 1614.005005,439.482117 1605.867188,439.482117 
	C1605.867188,453.692902 1605.867188,467.614655 1605.867188,481.536407 
	C1600.165649,468.570435 1595.263306,455.536621 1590.209717,442.561737 
	C1589.699951,441.252930 1588.312988,439.371429 1587.271851,439.330872 
	C1580.016724,439.048370 1572.745605,439.181580 1565.415771,439.181580 
	C1565.415771,472.912933 1565.415771,505.986572 1565.415771,539.256287 
	C1573.405273,539.256287 1581.132935,539.256287 1589.243408,539.256287 
	C1589.243408,524.894897 1589.243408,510.867767 1589.243408,496.840637 
	C1590.346680,497.723541 1590.796631,498.714783 1591.153076,499.738617 
	C1595.359497,511.819397 1599.493774,523.925964 1603.825439,535.961548 
	C1604.337158,537.383545 1605.868530,539.428955 1607.000000,539.477051 
	C1614.432617,539.793152 1621.885132,539.640015 1629.685181,539.640015 
	C1629.685181,511.426941 1629.685181,483.964508 1629.685181,455.502991 
M1041.675781,460.002991 
	C1041.759888,478.824890 1041.711182,497.648682 1041.978516,516.467957 
	C1042.135620,527.532288 1047.913574,535.449402 1058.212524,538.607788 
	C1065.177246,540.743530 1072.958740,541.594971 1080.233032,541.067017 
	C1097.536865,539.810974 1105.876099,530.321838 1105.998047,513.045776 
	C1106.163818,489.560089 1106.098633,466.072723 1106.105225,442.586060 
	C1106.105469,441.496948 1105.839722,440.407806 1105.717285,439.467682 
	C1096.439941,439.467682 1087.523315,439.467682 1078.209106,439.467682 
	C1078.209106,441.413818 1078.208740,443.043549 1078.209106,444.673248 
	C1078.212646,467.493622 1078.231445,490.314056 1078.199219,513.134399 
	C1078.195679,515.624207 1078.385498,518.290588 1077.565796,520.539917 
	C1077.035889,521.994080 1074.906616,523.531494 1073.347290,523.703979 
	C1072.353882,523.813904 1070.450073,521.655701 1070.091553,520.228760 
	C1069.454834,517.695496 1069.569336,514.945312 1069.566162,512.285645 
	C1069.539185,489.964996 1069.557007,467.644257 1069.561157,445.323578 
	C1069.561523,443.374725 1069.561157,441.425873 1069.561157,439.430847 
	C1059.952515,439.430847 1051.028687,439.430847 1041.673828,439.430847 
	C1041.673828,446.145447 1041.673828,452.610718 1041.675781,460.002991 
M777.452759,514.006653 
	C778.089050,526.427246 784.037170,535.152954 795.846130,539.257324 
	C805.711731,542.686218 815.784790,542.649475 825.687256,539.112305 
	C836.144775,535.376831 842.436035,527.761597 842.786682,516.812256 
	C843.377380,498.363159 843.382324,479.865448 842.748779,461.418610 
	C842.386658,450.876068 836.194946,443.510834 826.139893,439.862701 
	C816.964722,436.533813 807.564758,436.223358 798.165649,438.727844 
	C785.623962,442.069672 778.474243,449.814087 777.883179,462.692322 
	C777.113403,479.465698 777.478455,496.291138 777.452759,514.006653 
M1448.224976,437.666840 
	C1432.271851,439.777435 1422.625732,448.556061 1422.175415,462.914825 
	C1421.622070,480.554169 1421.726440,498.232880 1422.178711,515.878357 
	C1422.473389,527.372681 1429.735474,536.170593 1440.494507,539.521973 
	C1449.613403,542.362488 1458.870361,542.527710 1468.067017,539.893921 
	C1479.394043,536.650146 1486.695801,528.107605 1486.976196,516.318970 
	C1487.407715,498.180145 1487.467896,480.012024 1486.935547,461.878357 
	C1486.617920,451.061432 1480.584839,443.057068 1470.187012,440.006561 
	C1463.490234,438.041840 1456.151001,438.267487 1448.224976,437.666840 
M639.190369,453.009430 
	C638.963806,453.981476 638.724609,454.950806 638.512573,455.926025 
	C634.973389,472.209167 639.346497,482.808624 653.286499,491.691620 
	C657.909119,494.637268 662.398254,497.840759 667.225159,500.405731 
	C674.362976,504.198761 676.131775,510.160217 675.295837,517.564148 
	C674.882812,521.222351 673.761719,524.182373 669.393127,524.092712 
	C665.207764,524.006836 664.822876,520.808105 664.727783,517.732178 
	C664.586121,513.147095 664.691101,508.554413 664.691101,503.893738 
	C655.394958,503.893738 646.853394,503.893738 637.835449,503.893738 
	C638.197815,509.263672 638.377625,514.243225 638.899353,519.186707 
	C640.045715,530.049194 646.249695,537.309631 656.619568,539.455627 
	C664.435486,541.073242 672.875488,541.541687 680.769226,540.495544 
	C693.842773,538.763000 700.631287,531.674438 701.799011,520.698059 
	C702.254517,516.416748 702.113892,512.045532 701.932251,507.728363 
	C701.529724,498.161896 697.739868,490.342438 689.424194,485.146484 
	C682.943054,481.096863 676.343445,477.236877 669.859192,473.192139 
	C664.553345,469.882385 662.316040,464.351929 664.554077,458.593750 
	C665.276428,456.735046 667.944458,454.531433 669.721558,454.532196 
	C671.142700,454.532806 673.371155,457.457367 673.798401,459.401276 
	C674.485596,462.527893 673.982788,465.916046 673.982788,469.426331 
	C682.980896,469.426331 691.393799,469.426331 699.996521,469.426331 
	C699.996521,465.837311 700.136719,462.530243 699.970581,459.238647 
	C699.444397,448.812683 695.047424,442.989197 685.163025,439.737671 
	C674.914246,436.366211 664.520447,436.307800 654.187378,439.211395 
	C647.277405,441.153076 642.044067,445.274933 639.190369,453.009430 
M245.226257,415.248230 
	C269.451935,421.056000 293.941132,422.552795 318.562073,418.723846 
	C326.526886,417.485199 334.318359,414.835785 342.017151,412.307983 
	C345.825470,411.057526 347.403656,407.965118 345.122894,403.927979 
	C341.987427,398.377808 335.277008,395.437531 329.051819,396.958099 
	C311.966248,401.131592 294.796448,401.447662 277.574615,397.970917 
	C247.681122,391.936035 231.176987,375.824585 225.334396,347.047058 
	C224.772339,344.278656 224.851395,341.300842 223.853149,338.722076 
	C222.807968,336.022064 221.115677,331.879272 219.186188,331.565552 
	C215.101166,330.901306 214.807831,335.430603 214.395004,338.355011 
	C211.804108,356.709198 211.123016,375.136841 212.793579,393.631958 
	C213.501236,401.466644 217.587723,406.622223 224.901459,409.096924 
	C231.343170,411.276550 237.906876,413.095734 245.226257,415.248230 
M1234.380615,439.164246 
	C1216.134521,439.164246 1197.888306,439.164246 1179.532104,439.164246 
	C1179.532104,446.129181 1179.532104,452.506989 1179.532104,459.266357 
	C1185.328613,459.266357 1190.779297,459.266357 1196.730225,459.266357 
	C1196.730225,486.180603 1196.730225,512.710571 1196.730225,539.162476 
	C1206.307983,539.162476 1215.368652,539.162476 1224.771240,539.162476 
	C1224.771240,512.362610 1224.771240,485.966003 1224.771240,459.171387 
	C1230.537231,459.171387 1235.964722,459.171387 1241.538330,459.171387 
	C1241.538330,452.380859 1241.538330,445.997375 1241.538330,439.164124 
	C1239.256714,439.164124 1237.300415,439.164124 1234.380615,439.164246 
M945.499878,539.567505 
	C952.934570,539.567505 960.369324,539.567505 967.761597,539.567505 
	C967.761597,532.435120 967.761597,525.997131 967.761597,519.134521 
	C961.444336,519.134521 955.361084,519.134521 948.807129,519.134521 
	C948.807129,492.326111 948.807129,465.943329 948.807129,439.437195 
	C939.243408,439.437195 930.169983,439.437195 920.945068,439.437195 
	C920.945068,472.827026 920.945068,505.938202 920.945068,539.563782 
	C928.917908,539.563782 936.708923,539.563782 945.499878,539.567505 
M354.646698,167.752335 
	C375.143951,172.486084 387.900146,184.895920 392.283051,205.646805 
	C392.866333,208.408432 393.206146,211.346970 394.447113,213.805695 
	C395.495422,215.882797 397.687134,217.382828 399.372803,219.138275 
	C400.659912,217.293243 402.987091,215.494629 403.071808,213.595947 
	C403.842255,196.326035 404.353210,179.040771 404.630371,161.755051 
	C404.707520,156.942444 401.905945,154.024918 396.957825,152.708191 
	C374.111450,146.628555 350.932281,143.719681 327.321625,145.319748 
	C320.397125,145.788986 313.469696,147.058380 306.695648,148.620453 
	C301.873077,149.732529 301.357117,152.650345 304.911133,156.143448 
	C309.683838,160.834366 315.302795,163.518280 322.170868,164.058289 
	C332.760742,164.890915 343.304901,166.304871 354.646698,167.752335 
M1343.757080,481.500153 
	C1343.757080,467.449066 1343.757080,453.397949 1343.757080,439.519897 
	C1333.975952,439.519897 1325.059082,439.519897 1316.064209,439.519897 
	C1316.064209,472.929199 1316.064209,505.997040 1316.064209,539.209106 
	C1325.332397,539.209106 1334.390747,539.209106 1343.758301,539.209106 
	C1343.758301,520.060486 1343.758301,501.280334 1343.757080,481.500153 
z"/>
<path fill="#010101" opacity="1.000000" stroke="none" 
	d="
M1655.165894,378.714539 
	C1655.145996,375.768829 1655.145996,373.281982 1655.145996,370.714172 
	C1648.526733,369.658325 1642.095581,368.971649 1635.822754,367.574677 
	C1604.288574,360.552063 1576.370972,337.406342 1575.191650,295.123291 
	C1573.803101,245.343933 1573.827759,195.520035 1573.701782,145.714294 
	C1573.671631,133.772186 1574.532349,121.659798 1576.610352,109.913544 
	C1581.761475,80.796295 1598.853516,60.846275 1626.498169,50.686295 
	C1655.754395,39.933979 1685.464355,40.273319 1714.397705,51.597736 
	C1744.236450,63.276611 1760.495117,86.188904 1763.889893,117.886780 
	C1765.288574,130.947968 1765.877319,144.147339 1765.953369,157.288940 
	C1766.171387,194.948410 1766.155396,232.612778 1765.754761,270.270142 
	C1765.629395,282.057556 1764.598755,293.916840 1762.914551,305.589081 
	C1759.465454,329.493622 1745.902710,345.093536 1722.572754,351.941803 
	C1720.186890,352.642181 1717.791016,353.308136 1715.463379,353.971893 
	C1714.605835,364.823029 1718.586060,369.575256 1729.069336,369.796112 
	C1739.396851,370.013733 1749.732544,369.849884 1760.064575,369.853180 
	C1761.852173,369.853729 1763.639771,369.853241 1765.669434,369.853241 
	C1765.669434,382.748688 1765.669434,395.157074 1765.669434,408.056824 
	C1764.396484,408.056824 1763.281616,408.057526 1762.166870,408.056732 
	C1739.669556,408.040680 1717.171997,408.088684 1694.675293,407.958435 
	C1689.692749,407.929626 1684.631226,407.719788 1679.747925,406.822296 
	C1661.735352,403.511963 1656.016479,394.872620 1655.165894,378.714539 
M1655.871826,177.499954 
	C1656.249878,219.467133 1656.582031,261.434875 1657.088135,303.400513 
	C1657.131348,306.991058 1657.990845,310.674835 1659.075195,314.125549 
	C1660.674683,319.215820 1664.956787,320.586395 1669.793579,320.443695 
	C1674.657227,320.300293 1678.858032,318.661713 1679.923828,313.353546 
	C1680.967041,308.157043 1681.978516,302.842712 1682.016724,297.572968 
	C1682.440918,239.113571 1682.729126,180.652908 1682.867188,122.192123 
	C1682.880371,116.586418 1682.070435,110.881371 1680.856201,105.396515 
	C1679.538208,99.442474 1675.402954,96.657326 1669.681885,96.679962 
	C1663.962891,96.702591 1659.975586,99.580078 1658.222778,105.241394 
	C1657.539795,107.447105 1656.985840,109.789383 1656.940308,112.080711 
	C1656.513916,133.552399 1656.210815,155.026520 1655.871826,177.499954 
z"/>
<path fill="#020202" opacity="1.000000" stroke="none" 
	d="
M1111.000000,49.919769 
	C1133.474731,50.539764 1155.456299,50.984550 1177.422852,51.819870 
	C1215.826660,53.280231 1233.977539,78.449829 1238.431274,107.257294 
	C1241.640259,128.013870 1241.563843,148.762543 1237.757568,169.418732 
	C1234.488037,187.162888 1223.812744,198.000824 1206.213867,202.010559 
	C1204.313599,202.443497 1202.421265,202.911346 1199.598877,203.583694 
	C1203.112061,204.923843 1205.856079,205.970779 1208.600220,207.017319 
	C1228.290405,214.526642 1239.232178,229.095642 1239.721802,249.845703 
	C1240.652954,289.320190 1240.402710,328.822571 1240.627686,368.313477 
	C1240.629395,368.613800 1240.418335,368.915344 1240.198242,369.508301 
	C1214.884399,369.508301 1189.472534,369.508301 1163.417603,369.508301 
	C1163.417603,367.736389 1163.423096,365.966919 1163.416870,364.197540 
	C1163.293335,329.367615 1163.207764,294.537476 1163.002930,259.708038 
	C1162.970581,254.222015 1162.532837,248.726990 1162.044189,243.257431 
	C1161.036499,231.976959 1156.482422,227.594742 1145.263916,226.934814 
	C1142.958740,226.799210 1140.638672,226.915176 1137.797363,226.915176 
	C1137.797363,274.348938 1137.797363,321.737335 1137.797363,369.463379 
	C1110.054932,369.463379 1082.838745,369.463379 1055.327637,369.463379 
	C1055.327637,263.176331 1055.327637,156.930847 1055.327637,49.920387 
	C1073.681030,49.920387 1092.090454,49.920387 1111.000000,49.919769 
M1137.731079,105.683868 
	C1137.731079,128.948166 1137.731079,152.212463 1137.731079,175.599762 
	C1140.759399,175.446884 1143.084351,175.355621 1145.405640,175.207886 
	C1156.284912,174.515442 1161.200195,170.857803 1162.166504,159.955811 
	C1163.265625,147.556503 1163.307251,135.001266 1162.882812,122.545364 
	C1162.386353,107.974167 1152.496704,101.292580 1137.731079,105.683868 
z"/>
<path fill="#010201" opacity="1.000000" stroke="none" 
	d="
M1023.886597,268.988953 
	C1022.799561,283.582703 1022.916321,297.898865 1020.380676,311.728699 
	C1015.215881,339.897980 997.778198,359.073761 971.361755,368.827515 
	C940.912781,380.070221 909.817749,379.749390 879.803894,366.928406 
	C851.101196,354.667450 835.657166,331.926788 833.138672,300.906647 
	C831.805969,284.491943 831.111938,267.980011 831.107971,251.511749 
	C831.098389,211.372208 831.196106,171.220108 832.271790,131.100433 
	C832.596863,118.976662 834.666870,106.368767 838.740417,94.985657 
	C847.529663,70.424843 866.240417,55.324963 890.986145,48.276108 
	C917.431396,40.743137 944.116516,41.062836 970.044556,50.529007 
	C1001.173889,61.894169 1018.143372,84.957184 1021.916382,117.659180 
	C1023.116516,128.061371 1023.736938,138.583420 1023.793701,149.055115 
	C1024.009644,188.866180 1023.886414,228.679062 1023.886597,268.988953 
M941.062683,124.538689 
	C940.386414,118.268654 940.173950,111.902817 938.903809,105.755470 
	C937.625977,99.570526 933.637939,96.772476 928.014526,96.689369 
	C921.745239,96.596718 917.440491,99.406021 916.066101,105.765198 
	C914.811035,111.572395 914.069458,117.610130 914.058411,123.548042 
	C913.952759,180.159103 913.998108,236.770691 914.166687,293.381653 
	C914.184875,299.502106 914.861511,305.690521 915.945312,311.719299 
	C917.166504,318.512268 920.749695,321.051208 927.413818,321.055328 
	C934.043274,321.059387 937.614197,318.559479 938.878906,311.683472 
	C940.046570,305.334320 940.790527,298.811951 940.813904,292.362579 
	C941.015564,236.751480 941.011597,181.139633 941.062683,124.538689 
z"/>
<path fill="#010101" opacity="1.000000" stroke="none" 
	d="
M655.000122,255.750671 
	C669.442261,255.750198 683.384399,255.750198 697.694458,255.750198 
	C697.694458,267.777893 697.554932,279.244110 697.748779,290.704712 
	C697.858276,297.182251 698.127808,303.705200 699.030151,310.108337 
	C700.029053,317.196747 704.055847,320.559021 710.645691,320.998352 
	C718.403931,321.515564 724.225891,318.456329 725.837830,311.715759 
	C729.588379,296.031525 729.311279,280.252441 723.899902,264.984650 
	C721.066040,256.989014 714.044373,252.092484 707.373169,247.393936 
	C692.276367,236.761200 676.992188,226.394592 661.788452,215.913559 
	C658.774353,213.835739 655.768982,211.744995 652.777283,209.635071 
	C630.117004,193.653427 619.786743,171.104767 618.177002,144.067520 
	C617.283630,129.062988 617.815857,114.114578 620.932190,99.313454 
	C625.650513,76.903831 638.378662,60.884155 659.664612,52.651157 
	C693.177307,39.689091 727.016052,39.803364 760.531860,52.881775 
	C784.316833,62.163078 797.601074,79.829620 799.762634,105.330917 
	C800.926147,119.057846 801.289734,132.852570 802.027893,146.876251 
	C775.577881,146.876251 750.135559,146.876251 724.027771,146.876251 
	C724.027771,145.087112 724.071655,143.321304 724.020691,141.558228 
	C723.703247,130.575882 723.616150,119.578659 722.942505,108.617729 
	C722.509155,101.568047 718.903503,97.667183 713.445251,96.905350 
	C706.553223,95.943390 700.717590,98.720009 698.850830,105.377983 
	C693.545166,124.301147 693.559204,148.182068 715.026917,161.171646 
	C731.105469,170.900391 746.468872,181.804810 762.454346,191.694946 
	C793.019836,210.605637 806.896545,238.419891 806.795593,273.705139 
	C806.757080,287.168915 806.510864,300.695923 805.190369,314.078766 
	C802.568665,340.650665 787.190430,358.165527 762.983032,367.425140 
	C729.043335,380.407562 694.867615,379.908752 661.452881,365.125946 
	C639.648865,355.479797 626.811340,338.650238 622.709717,314.857178 
	C619.347839,295.355286 619.279297,275.833344 619.870422,255.751129 
	C631.599487,255.751129 643.049805,255.751129 655.000122,255.750671 
z"/>
<path fill="#020202" opacity="1.000000" stroke="none" 
	d="
M1258.811035,69.000313 
	C1258.810913,62.518921 1258.810913,56.537464 1258.810913,50.228832 
	C1319.299561,50.228832 1379.521240,50.228832 1440.014160,50.228832 
	C1440.014160,71.156349 1440.014160,92.074165 1440.014160,113.600037 
	C1423.967773,113.600037 1407.927734,113.600037 1391.426025,113.600037 
	C1391.426025,199.273605 1391.426025,284.341553 1391.426025,369.538849 
	C1363.369873,369.538849 1335.788086,369.538849 1307.830811,369.538849 
	C1307.830811,284.345428 1307.830811,199.413864 1307.830811,113.900482 
	C1291.436157,113.900482 1275.400391,113.900482 1258.811035,113.900482 
	C1258.811035,98.716766 1258.811035,84.108513 1258.811035,69.000313 
z"/>
<path fill="#030303" opacity="1.000000" stroke="none" 
	d="
M1459.386597,353.992615 
	C1459.387207,252.561127 1459.387207,151.628326 1459.387207,50.298019 
	C1486.829590,50.298019 1514.013916,50.298019 1541.498657,50.298019 
	C1541.498657,156.562027 1541.498657,262.783020 1541.498657,369.400513 
	C1514.343872,369.400513 1487.153564,369.400513 1459.385986,369.400513 
	C1459.385986,364.387360 1459.385986,359.439331 1459.386597,353.992615 
z"/>
<path fill="#DA7931" opacity="1.000000" stroke="none" 
	d="
M248.772720,181.206802 
	C235.703125,165.235184 228.353699,146.897980 224.838776,126.600922 
	C218.076340,87.550850 245.672134,46.299084 288.714020,33.063091 
	C321.765778,22.899200 354.848999,25.199476 387.236145,34.523331 
	C479.678833,61.136417 542.060730,120.364876 569.843750,212.496841 
	C595.314575,296.961365 578.048584,374.631470 522.898743,443.392303 
	C495.005280,478.169769 460.084381,504.192322 418.853943,521.459351 
	C414.587830,523.245972 410.005524,524.382690 405.472595,525.377441 
	C403.551239,525.799072 401.378265,525.074280 399.319641,524.870544 
	C399.959839,522.938049 400.180145,520.707275 401.307220,519.120667 
	C409.635803,507.395966 420.241943,498.223816 432.765686,491.119843 
	C471.584015,469.100800 503.965240,440.153687 526.887878,401.531067 
	C552.620422,358.174011 563.718933,311.194305 557.016174,261.100433 
	C544.354553,166.472626 492.662811,100.587639 405.933929,62.183846 
	C379.494873,50.476555 351.231140,45.374584 322.065826,48.099083 
	C304.155151,49.772209 287.464447,54.646011 273.938232,67.521210 
	C258.010071,82.682678 253.120728,104.115891 262.327881,124.207108 
	C265.886780,131.973068 271.409790,138.838943 276.037933,146.538712 
	C276.037872,146.962524 275.825195,147.168167 275.502808,147.076416 
	C265.786163,139.950455 261.482849,129.449844 258.225098,119.032455 
	C251.167694,96.464745 259.162415,75.120819 277.851593,61.535019 
	C283.822052,57.194908 288.152466,52.236465 288.090118,44.201515 
	C288.038544,37.563736 286.133270,35.716103 280.130066,38.528973 
	C264.481018,45.861481 250.815308,55.442680 240.705414,70.102127 
	C232.223511,82.400963 226.750916,95.640800 226.236389,110.229538 
	C225.470581,131.942596 231.337051,152.184769 243.592758,170.402954 
	C245.782242,173.657654 247.335312,177.340454 249.080200,180.921249 
	C248.978165,181.016922 248.772720,181.206802 248.772720,181.206802 
z"/>
<path fill="#DB7932" opacity="1.000000" stroke="none" 
	d="
M361.222870,337.768341 
	C387.881500,360.380066 409.692596,386.141266 413.698029,422.602051 
	C418.228516,463.842773 403.867126,496.834991 368.946075,519.990173 
	C342.506500,537.521545 312.827759,542.539185 281.930481,539.445435 
	C215.561844,532.799927 159.604462,504.095551 113.844154,456.056061 
	C77.547531,417.951599 55.360607,372.420532 48.959053,320.000336 
	C38.480354,234.193817 64.580322,160.539856 125.367516,99.454491 
	C152.720200,71.967621 185.767578,53.210258 222.794235,41.585430 
	C224.851425,40.939556 226.963470,40.210697 229.080139,40.100636 
	C230.542557,40.024593 232.738663,40.529636 233.360718,41.541275 
	C234.011795,42.600140 233.737976,45.055424 232.882309,46.062267 
	C229.992523,49.462559 227.055130,53.053028 223.436981,55.563438 
	C208.397919,65.998100 193.274612,76.331337 177.872025,86.218575 
	C116.717125,125.475197 80.325111,181.388428 70.630371,252.883942 
	C59.488712,335.049957 87.295731,403.988983 149.123322,458.962524 
	C179.466660,485.942139 214.282410,505.050049 254.094620,514.270935 
	C281.602997,520.642151 309.256256,522.247437 336.407349,512.985352 
	C359.219116,505.203522 371.674561,488.334015 375.004517,464.651337 
	C378.950073,436.590942 369.894623,412.760406 350.746490,392.520508 
	C343.895630,385.279053 336.333191,378.710785 329.034149,371.434021 
	C328.972748,371.032806 329.172638,370.820129 329.518280,370.880035 
	C333.579926,373.624023 337.295959,376.308105 341.152283,379.293274 
	C344.194336,382.397888 347.096039,385.201416 350.143799,388.305817 
	C354.187378,393.074219 358.084961,397.541687 362.023743,402.359131 
	C364.697601,406.489471 367.330292,410.269806 369.966187,414.445190 
	C371.985016,420.892242 374.000610,426.944305 376.010742,433.383362 
	C376.333923,435.181335 376.662598,436.592316 376.991608,438.376831 
	C377.005524,439.497314 377.019104,440.244232 377.074585,441.407837 
	C377.409790,448.215912 377.703064,454.607361 377.945862,461.392731 
	C376.583252,468.508728 375.271149,475.230743 373.615173,482.022156 
	C369.844757,487.392212 366.418182,492.692932 362.692017,498.137939 
	C359.261627,501.188538 356.130829,504.094879 352.683289,507.137115 
	C349.822754,508.829163 347.464355,510.999725 344.702454,511.833130 
	C333.815796,515.118225 322.862244,518.231140 311.810822,520.899780 
	C306.247955,522.243103 300.612457,522.871216 297.038727,528.027649 
	C301.277710,533.856445 305.844055,538.295654 313.362091,536.903870 
	C321.804871,535.340881 330.280121,533.865417 338.617615,531.842407 
	C351.007355,528.835938 362.081451,522.997131 372.352631,514.955566 
	C375.797119,511.942749 378.907745,508.985901 382.362610,505.986298 
	C386.474945,501.630493 390.243042,497.317413 394.298004,492.861603 
	C395.389893,491.478821 396.194916,490.238800 397.142120,488.684570 
	C397.890137,487.379700 398.579407,486.429810 399.087494,485.391296 
	C401.426758,480.609680 403.715546,475.803314 406.294067,470.771210 
	C408.048767,464.693298 409.531860,458.849976 411.302338,452.706055 
	C411.727295,447.270721 411.864868,442.135956 412.006653,436.625610 
	C412.004486,435.498657 411.998169,434.747345 411.994202,433.664520 
	C411.992340,432.891083 411.988068,432.449127 411.991791,431.544922 
	C411.350983,426.715698 410.702118,422.348755 410.045593,417.562805 
	C408.689636,411.430420 407.341309,405.717041 405.957031,399.632568 
	C403.957275,395.171173 401.993469,391.080872 400.020111,386.623688 
	C397.007568,381.838287 394.004608,377.419739 390.967346,372.651794 
	C387.954407,368.541046 384.975769,364.779755 381.700073,360.867889 
	C377.602051,356.811951 373.801025,352.906586 369.859222,348.699585 
	C366.763489,344.982605 363.808533,341.567261 360.945801,338.055939 
	C361.038025,337.959961 361.222870,337.768341 361.222870,337.768341 
z"/>
<path fill="#060606" opacity="1.000000" stroke="none" 
	d="
M1629.685181,456.002533 
	C1629.685181,483.964508 1629.685181,511.426941 1629.685181,539.640015 
	C1621.885132,539.640015 1614.432617,539.793152 1607.000000,539.477051 
	C1605.868530,539.428955 1604.337158,537.383545 1603.825439,535.961548 
	C1599.493774,523.925964 1595.359497,511.819397 1591.153076,499.738617 
	C1590.796631,498.714783 1590.346680,497.723541 1589.243408,496.840637 
	C1589.243408,510.867767 1589.243408,524.894897 1589.243408,539.256287 
	C1581.132935,539.256287 1573.405273,539.256287 1565.415771,539.256287 
	C1565.415771,505.986572 1565.415771,472.912933 1565.415771,439.181580 
	C1572.745605,439.181580 1580.016724,439.048370 1587.271851,439.330872 
	C1588.312988,439.371429 1589.699951,441.252930 1590.209717,442.561737 
	C1595.263306,455.536621 1600.165649,468.570435 1605.867188,481.536407 
	C1605.867188,467.614655 1605.867188,453.692902 1605.867188,439.482117 
	C1614.005005,439.482117 1621.565552,439.482117 1629.685181,439.482117 
	C1629.685181,444.940491 1629.685181,450.221741 1629.685181,456.002533 
z"/>
<path fill="#040404" opacity="1.000000" stroke="none" 
	d="
M1041.674805,459.539490 
	C1041.673828,452.610718 1041.673828,446.145447 1041.673828,439.430847 
	C1051.028687,439.430847 1059.952515,439.430847 1069.561157,439.430847 
	C1069.561157,441.425873 1069.561523,443.374725 1069.561157,445.323578 
	C1069.557007,467.644257 1069.539185,489.964996 1069.566162,512.285645 
	C1069.569336,514.945312 1069.454834,517.695496 1070.091553,520.228760 
	C1070.450073,521.655701 1072.353882,523.813904 1073.347290,523.703979 
	C1074.906616,523.531494 1077.035889,521.994080 1077.565796,520.539917 
	C1078.385498,518.290588 1078.195679,515.624207 1078.199219,513.134399 
	C1078.231445,490.314056 1078.212646,467.493622 1078.209106,444.673248 
	C1078.208740,443.043549 1078.209106,441.413818 1078.209106,439.467682 
	C1087.523315,439.467682 1096.439941,439.467682 1105.717285,439.467682 
	C1105.839722,440.407806 1106.105469,441.496948 1106.105225,442.586060 
	C1106.098633,466.072723 1106.163818,489.560089 1105.998047,513.045776 
	C1105.876099,530.321838 1097.536865,539.810974 1080.233032,541.067017 
	C1072.958740,541.594971 1065.177246,540.743530 1058.212524,538.607788 
	C1047.913574,535.449402 1042.135620,527.532288 1041.978516,516.467957 
	C1041.711182,497.648682 1041.759888,478.824890 1041.674805,459.539490 
z"/>
<path fill="#040404" opacity="1.000000" stroke="none" 
	d="
M777.403992,513.550415 
	C777.478455,496.291138 777.113403,479.465698 777.883179,462.692322 
	C778.474243,449.814087 785.623962,442.069672 798.165649,438.727844 
	C807.564758,436.223358 816.964722,436.533813 826.139893,439.862701 
	C836.194946,443.510834 842.386658,450.876068 842.748779,461.418610 
	C843.382324,479.865448 843.377380,498.363159 842.786682,516.812256 
	C842.436035,527.761597 836.144775,535.376831 825.687256,539.112305 
	C815.784790,542.649475 805.711731,542.686218 795.846130,539.257324 
	C784.037170,535.152954 778.089050,526.427246 777.403992,513.550415 
M806.095093,457.823944 
	C805.993652,478.075745 805.866455,498.327484 805.819946,518.579407 
	C805.813354,521.439331 806.688782,523.993469 810.226257,524.056580 
	C813.740601,524.119324 814.891968,521.500061 814.921204,518.754944 
	C815.129456,499.156952 815.222107,479.556671 815.120300,459.958282 
	C815.111755,458.309113 813.621582,455.505890 812.446899,455.292572 
	C810.614624,454.959869 808.462891,456.386597 806.095093,457.823944 
z"/>
<path fill="#040404" opacity="1.000000" stroke="none" 
	d="
M1448.662354,437.589111 
	C1456.151001,438.267487 1463.490234,438.041840 1470.187012,440.006561 
	C1480.584839,443.057068 1486.617920,451.061432 1486.935547,461.878357 
	C1487.467896,480.012024 1487.407715,498.180145 1486.976196,516.318970 
	C1486.695801,528.107605 1479.394043,536.650146 1468.067017,539.893921 
	C1458.870361,542.527710 1449.613403,542.362488 1440.494507,539.521973 
	C1429.735474,536.170593 1422.473389,527.372681 1422.178711,515.878357 
	C1421.726440,498.232880 1421.622070,480.554169 1422.175415,462.914825 
	C1422.625732,448.556061 1432.271851,439.777435 1448.662354,437.589111 
M1456.070679,523.793945 
	C1457.152100,521.716675 1459.143066,519.652405 1459.172974,517.560120 
	C1459.445801,498.439636 1459.405640,479.314209 1459.380737,460.190338 
	C1459.376709,457.143066 1458.506714,454.369171 1454.656738,454.540924 
	C1451.063477,454.701233 1449.958496,457.292908 1449.840820,460.384491 
	C1449.670166,464.871643 1449.585693,469.365326 1449.601929,473.855713 
	C1449.654297,488.331238 1449.724976,502.807007 1449.892578,517.281494 
	C1449.932861,520.771606 1450.516357,524.141602 1456.070679,523.793945 
z"/>
<path fill="#050505" opacity="1.000000" stroke="none" 
	d="
M639.350403,452.644135 
	C642.044067,445.274933 647.277405,441.153076 654.187378,439.211395 
	C664.520447,436.307800 674.914246,436.366211 685.163025,439.737671 
	C695.047424,442.989197 699.444397,448.812683 699.970581,459.238647 
	C700.136719,462.530243 699.996521,465.837311 699.996521,469.426331 
	C691.393799,469.426331 682.980896,469.426331 673.982788,469.426331 
	C673.982788,465.916046 674.485596,462.527893 673.798401,459.401276 
	C673.371155,457.457367 671.142700,454.532806 669.721558,454.532196 
	C667.944458,454.531433 665.276428,456.735046 664.554077,458.593750 
	C662.316040,464.351929 664.553345,469.882385 669.859192,473.192139 
	C676.343445,477.236877 682.943054,481.096863 689.424194,485.146484 
	C697.739868,490.342438 701.529724,498.161896 701.932251,507.728363 
	C702.113892,512.045532 702.254517,516.416748 701.799011,520.698059 
	C700.631287,531.674438 693.842773,538.763000 680.769226,540.495544 
	C672.875488,541.541687 664.435486,541.073242 656.619568,539.455627 
	C646.249695,537.309631 640.045715,530.049194 638.899353,519.186707 
	C638.377625,514.243225 638.197815,509.263672 637.835449,503.893738 
	C646.853394,503.893738 655.394958,503.893738 664.691101,503.893738 
	C664.691101,508.554413 664.586121,513.147095 664.727783,517.732178 
	C664.822876,520.808105 665.207764,524.006836 669.393127,524.092712 
	C673.761719,524.182373 674.882812,521.222351 675.295837,517.564148 
	C676.131775,510.160217 674.362976,504.198761 667.225159,500.405731 
	C662.398254,497.840759 657.909119,494.637268 653.286499,491.691620 
	C639.346497,482.808624 634.973389,472.209167 638.512573,455.926025 
	C638.724609,454.950806 638.963806,453.981476 639.350403,452.644135 
z"/>
<path fill="#050505" opacity="1.000000" stroke="none" 
	d="
M1747.855835,540.838013 
	C1740.423706,540.538086 1732.801147,541.179871 1725.602417,539.725281 
	C1713.785767,537.337646 1707.753540,529.554016 1706.888428,517.591858 
	C1706.566772,513.144226 1706.836304,508.653900 1706.836304,503.481018 
	C1710.980103,503.481018 1715.239502,503.480988 1719.499023,503.480988 
	C1723.798706,503.480988 1728.098511,503.481018 1732.966187,503.481018 
	C1732.966187,508.787872 1732.898926,513.571899 1732.991943,518.352844 
	C1733.046509,521.154419 1733.616699,523.774475 1737.166138,524.112061 
	C1740.873291,524.464600 1742.583496,522.443298 1743.391235,519.074890 
	C1745.202271,511.521973 1743.097168,505.741608 1736.618530,501.418732 
	C1729.844727,496.898865 1722.845703,492.702423 1716.217041,487.982727 
	C1706.537842,481.091064 1703.192261,468.354523 1707.182983,454.118713 
	C1710.231812,443.242676 1718.843384,439.504791 1728.922607,437.853729 
	C1737.822754,436.395721 1746.525024,437.230957 1754.997681,440.223755 
	C1763.034302,443.062561 1767.425537,448.834412 1768.106934,457.333496 
	C1768.421509,461.258026 1768.552490,465.197266 1768.782837,469.424316 
	C1759.906738,469.424316 1751.627319,469.424316 1742.846313,469.424316 
	C1742.695312,466.183289 1743.015625,462.656982 1742.198730,459.417389 
	C1741.706543,457.464508 1739.688354,454.892212 1737.925171,454.491119 
	C1735.038574,453.834442 1733.291016,456.132843 1732.681763,459.200104 
	C1731.378784,465.759918 1733.128296,470.140594 1738.816040,473.612366 
	C1744.067261,476.817719 1749.250732,480.150360 1754.632568,483.121674 
	C1765.292236,489.006714 1770.375000,498.036743 1770.365967,510.063324 
	C1770.363159,513.719788 1770.138794,517.376160 1769.658447,521.231079 
	C1767.921631,518.626465 1766.541992,515.823364 1764.624268,511.926697 
	C1760.899658,525.242615 1752.871582,532.868103 1740.075684,536.697693 
	C1743.379639,538.455994 1745.617798,539.646973 1747.855835,540.838013 
z"/>
<path fill="#060504" opacity="1.000000" stroke="none" 
	d="
M244.821472,415.161133 
	C237.906876,413.095734 231.343170,411.276550 224.901459,409.096924 
	C217.587723,406.622223 213.501236,401.466644 212.793579,393.631958 
	C211.123016,375.136841 211.804108,356.709198 214.395004,338.355011 
	C214.807831,335.430603 215.101166,330.901306 219.186188,331.565552 
	C221.115677,331.879272 222.807968,336.022064 223.853149,338.722076 
	C224.851395,341.300842 224.772339,344.278656 225.334396,347.047058 
	C231.176987,375.824585 247.681122,391.936035 277.574615,397.970917 
	C294.796448,401.447662 311.966248,401.131592 329.051819,396.958099 
	C335.277008,395.437531 341.987427,398.377808 345.122894,403.927979 
	C347.403656,407.965118 345.825470,411.057526 342.017151,412.307983 
	C334.318359,414.835785 326.526886,417.485199 318.562073,418.723846 
	C293.941132,422.552795 269.451935,421.056000 244.821472,415.161133 
z"/>
<path fill="#060606" opacity="1.000000" stroke="none" 
	d="
M1234.862305,439.164185 
	C1237.300415,439.164124 1239.256714,439.164124 1241.538330,439.164124 
	C1241.538330,445.997375 1241.538330,452.380859 1241.538330,459.171387 
	C1235.964722,459.171387 1230.537231,459.171387 1224.771240,459.171387 
	C1224.771240,485.966003 1224.771240,512.362610 1224.771240,539.162476 
	C1215.368652,539.162476 1206.307983,539.162476 1196.730225,539.162476 
	C1196.730225,512.710571 1196.730225,486.180603 1196.730225,459.266357 
	C1190.779297,459.266357 1185.328613,459.266357 1179.532104,459.266357 
	C1179.532104,452.506989 1179.532104,446.129181 1179.532104,439.164246 
	C1197.888306,439.164246 1216.134521,439.164246 1234.862305,439.164185 
z"/>
<path fill="#040404" opacity="1.000000" stroke="none" 
	d="
M944.999878,539.565674 
	C936.708923,539.563782 928.917908,539.563782 920.945068,539.563782 
	C920.945068,505.938202 920.945068,472.827026 920.945068,439.437195 
	C930.169983,439.437195 939.243408,439.437195 948.807129,439.437195 
	C948.807129,465.943329 948.807129,492.326111 948.807129,519.134521 
	C955.361084,519.134521 961.444336,519.134521 967.761597,519.134521 
	C967.761597,525.997131 967.761597,532.435120 967.761597,539.567505 
	C960.369324,539.567505 952.934570,539.567505 944.999878,539.565674 
z"/>
<path fill="#793E14" opacity="1.000000" stroke="none" 
	d="
M354.257568,167.612274 
	C343.304901,166.304871 332.760742,164.890915 322.170868,164.058289 
	C315.302795,163.518280 309.683838,160.834366 304.911133,156.143448 
	C301.357117,152.650345 301.873077,149.732529 306.695648,148.620453 
	C313.469696,147.058380 320.397125,145.788986 327.321625,145.319748 
	C350.932281,143.719681 374.111450,146.628555 396.957825,152.708191 
	C401.905945,154.024918 404.707520,156.942444 404.630371,161.755051 
	C404.353210,179.040771 403.842255,196.326035 403.071808,213.595947 
	C402.987091,215.494629 400.659912,217.293243 399.372803,219.138275 
	C397.687134,217.382828 395.495422,215.882797 394.447113,213.805695 
	C393.206146,211.346970 392.866333,208.408432 392.283051,205.646805 
	C387.900146,184.895920 375.143951,172.486084 354.257568,167.612274 
z"/>
<path fill="#050505" opacity="1.000000" stroke="none" 
	d="
M1343.757690,482.000183 
	C1343.758301,501.280334 1343.758301,520.060486 1343.758301,539.209106 
	C1334.390747,539.209106 1325.332397,539.209106 1316.064209,539.209106 
	C1316.064209,505.997040 1316.064209,472.929199 1316.064209,439.519897 
	C1325.059082,439.519897 1333.975952,439.519897 1343.757080,439.519897 
	C1343.757080,453.397949 1343.757080,467.449066 1343.757690,482.000183 
z"/>
<path fill="#DA7931" opacity="1.000000" stroke="none" 
	d="
M320.215057,183.772934 
	C333.073151,194.316986 346.151520,204.606018 358.732025,215.471451 
	C373.514343,228.238525 387.008545,242.312439 398.013702,258.544434 
	C410.087616,276.352661 417.074371,295.790649 415.999725,317.650116 
	C415.312134,331.637543 410.417816,344.240173 403.426849,356.158234 
	C403.028229,356.837769 402.346954,357.351471 401.375977,358.395203 
	C399.548492,356.717407 397.672821,355.362335 396.259979,353.629791 
	C391.947357,348.341187 387.463959,343.136017 383.734711,337.447571 
	C381.339996,333.794800 379.104675,329.468903 378.614838,325.234558 
	C376.523163,307.153442 367.585144,292.652679 355.917023,279.478546 
	C350.843109,273.749725 345.355347,268.387451 340.002838,262.450989 
	C339.950134,262.043274 340.134766,261.824799 340.484222,261.880310 
	C342.325256,262.900269 344.093170,263.609222 345.261475,264.872620 
	C350.889648,270.958954 356.564178,277.023499 361.830597,283.418274 
	C369.445312,292.664551 376.385437,302.332733 378.176880,314.705963 
	C378.763367,318.756775 378.982086,323.266174 380.959106,326.631775 
	C386.194489,335.544464 392.135773,344.063049 398.143005,352.491180 
	C400.350555,355.588318 402.583557,353.527954 403.906128,351.106140 
	C409.798767,340.315796 413.495850,328.682587 413.838470,316.484009 
	C414.485596,293.443420 406.447418,273.239624 392.646942,254.856522 
	C376.457855,233.291641 356.590546,215.651016 335.806244,198.821274 
	C330.202118,194.283401 325.132233,189.085754 319.916626,184.086487 
	C320.016113,183.981979 320.215057,183.772934 320.215057,183.772934 
z"/>
<path fill="#DB7932" opacity="1.000000" stroke="none" 
	d="
M328.873596,371.139923 
	C301.569305,351.771149 274.490387,332.115997 252.783890,306.248657 
	C238.877182,289.676239 228.526123,271.171936 225.474411,249.438721 
	C223.044067,232.130524 224.379852,215.190231 234.031509,199.873184 
	C238.432709,192.888550 239.196350,192.874619 245.070923,198.389191 
	C246.040817,199.299667 246.975311,200.247849 247.966522,201.586777 
	C248.006882,201.994949 247.793060,202.207901 247.451843,202.147079 
	C246.410812,202.055084 245.710983,202.023911 244.860870,201.689453 
	C239.349869,195.600891 238.706833,195.645370 235.677719,202.150620 
	C234.718033,203.258026 233.924103,204.137299 233.430664,205.161346 
	C223.968414,224.798874 224.677567,244.948898 231.225403,265.062744 
	C237.345139,283.861481 248.557556,299.807617 262.368622,313.601135 
	C274.545471,325.762451 287.806610,336.855957 300.835449,348.136261 
	C305.160065,351.880493 310.249847,354.740936 315.142761,358.306091 
	C318.856201,361.082855 322.416656,363.558960 326.123291,366.326721 
	C327.237183,368.018951 328.204895,369.419556 329.172638,370.820129 
	C329.172638,370.820129 328.972748,371.032806 328.873596,371.139923 
z"/>
<path fill="#DB7932" opacity="1.000000" stroke="none" 
	d="
M248.113800,201.888489 
	C254.564606,206.386337 257.575806,212.618484 258.110535,220.438385 
	C259.444946,239.952835 267.499512,256.638550 280.498352,270.987610 
	C296.239166,288.363525 315.363800,301.772217 333.815338,315.963898 
	C342.908356,322.957642 351.889923,330.096161 361.072388,337.468750 
	C361.222870,337.768341 361.038025,337.959961 360.639069,338.012146 
	C359.824799,338.051758 359.409454,338.039154 358.649628,337.979614 
	C352.191223,333.437836 346.016144,329.023560 339.977356,324.430023 
	C330.103241,316.919067 320.237640,309.392639 310.514496,301.688416 
	C297.118225,291.073730 283.473358,280.502411 273.449158,266.550812 
	C267.399200,258.130524 262.969727,248.423447 258.710205,238.893173 
	C256.710236,234.418457 256.830505,228.996124 255.993988,223.570831 
	C254.665756,218.427429 253.333481,213.716400 251.700134,208.846069 
	C250.197067,206.527145 248.995071,204.367523 247.793060,202.207901 
	C247.793060,202.207901 248.006882,201.994949 248.113800,201.888489 
z"/>
<path fill="#7E7E7E" opacity="1.000000" stroke="none" 
	d="
M1748.244995,540.877991 
	C1745.617798,539.646973 1743.379639,538.455994 1740.075684,536.697693 
	C1752.871582,532.868103 1760.899658,525.242615 1764.624268,511.926697 
	C1766.541992,515.823364 1767.921631,518.626465 1769.565430,521.632324 
	C1768.868286,531.373596 1762.687988,536.284363 1754.340576,539.230774 
	C1752.472534,539.890076 1750.538086,540.360535 1748.244995,540.877991 
z"/>
<path fill="#DA7931" opacity="1.000000" stroke="none" 
	d="
M338.737885,261.244720 
	C325.723846,250.529144 312.714264,239.808121 299.691284,229.103424 
	C297.518921,227.317764 295.288086,225.603180 293.022186,223.451523 
	C292.960083,223.047287 293.164490,222.827728 293.516998,222.882751 
	C295.729919,223.945129 297.779114,224.712204 299.418762,226.000534 
	C307.481232,232.335449 315.624451,238.590393 323.363373,245.306549 
	C328.935516,250.142303 333.917633,255.657974 339.056030,260.963257 
	C338.949127,261.056122 338.737885,261.244720 338.737885,261.244720 
z"/>
<path fill="#DA7931" opacity="1.000000" stroke="none" 
	d="
M276.143890,146.859344 
	C290.788239,158.904663 305.326569,171.053131 320.039978,183.487274 
	C320.215057,183.772934 320.016113,183.981979 319.569092,184.025116 
	C317.810028,183.407654 316.338135,182.948730 315.210663,182.055222 
	C304.183960,173.316559 293.104736,164.637085 282.307312,155.621170 
	C279.648010,153.400604 277.959839,150.017059 275.825195,147.168167 
	C275.825195,147.168167 276.037872,146.962524 276.143890,146.859344 
z"/>
<path fill="#DA7931" opacity="1.000000" stroke="none" 
	d="
M292.858887,223.157990 
	C284.188019,216.132126 275.618378,208.995544 267.001587,201.448700 
	C266.954437,201.038422 267.136719,200.822998 267.487366,200.878998 
	C274.034180,205.936157 280.298035,210.856842 286.393402,215.978027 
	C288.841003,218.034439 290.918518,220.531326 293.164490,222.827728 
	C293.164490,222.827728 292.960083,223.047287 292.858887,223.157990 
z"/>
<path fill="#DA7931" opacity="1.000000" stroke="none" 
	d="
M265.743683,200.236603 
	C260.142548,194.112335 254.541412,187.988068 248.856506,181.535309 
	C248.772720,181.206802 248.978165,181.016922 249.400085,181.016571 
	C255.092407,186.492798 260.387665,191.946014 265.592346,197.484360 
	C266.079620,198.002884 265.994751,199.059052 266.066772,199.957428 
	C265.958008,200.049240 265.743683,200.236603 265.743683,200.236603 
z"/>
<path fill="#DA7931" opacity="1.000000" stroke="none" 
	d="
M339.856140,262.151123 
	C339.482117,262.079468 339.202057,261.899994 338.829956,261.482605 
	C338.737885,261.244720 338.949127,261.056122 339.241943,261.096252 
	C339.770874,261.334412 339.970886,261.563873 340.134766,261.824799 
	C340.134766,261.824799 339.950134,262.043274 339.856140,262.151123 
z"/>
<path fill="#DA7931" opacity="1.000000" stroke="none" 
	d="
M266.861542,201.144653 
	C266.488220,201.071533 266.207825,200.892181 265.835571,200.474716 
	C265.743683,200.236603 265.958008,200.049240 266.249573,200.092682 
	C266.774292,200.335037 266.972839,200.564011 267.136719,200.822998 
	C267.136719,200.822998 266.954437,201.038422 266.861542,201.144653 
z"/>
<path fill="#FDFDFD" opacity="1.000000" stroke="none" 
	d="
M1655.871826,176.999939 
	C1656.210815,155.026520 1656.513916,133.552399 1656.940308,112.080711 
	C1656.985840,109.789383 1657.539795,107.447105 1658.222778,105.241394 
	C1659.975586,99.580078 1663.962891,96.702591 1669.681885,96.679962 
	C1675.402954,96.657326 1679.538208,99.442474 1680.856201,105.396515 
	C1682.070435,110.881371 1682.880371,116.586418 1682.867188,122.192123 
	C1682.729126,180.652908 1682.440918,239.113571 1682.016724,297.572968 
	C1681.978516,302.842712 1680.967041,308.157043 1679.923828,313.353546 
	C1678.858032,318.661713 1674.657227,320.300293 1669.793579,320.443695 
	C1664.956787,320.586395 1660.674683,319.215820 1659.075195,314.125549 
	C1657.990845,310.674835 1657.131348,306.991058 1657.088135,303.400513 
	C1656.582031,261.434875 1656.249878,219.467133 1655.871826,176.999939 
z"/>
<path fill="#FDFDFD" opacity="1.000000" stroke="none" 
	d="
M1137.799561,105.208511 
	C1152.496704,101.292580 1162.386353,107.974167 1162.882812,122.545364 
	C1163.307251,135.001266 1163.265625,147.556503 1162.166504,159.955811 
	C1161.200195,170.857803 1156.284912,174.515442 1145.405640,175.207886 
	C1143.084351,175.355621 1140.759399,175.446884 1137.731079,175.599762 
	C1137.731079,152.212463 1137.731079,128.948166 1137.799561,105.208511 
z"/>
<path fill="#FEFEFE" opacity="1.000000" stroke="none" 
	d="
M941.065857,125.033340 
	C941.011597,181.139633 941.015564,236.751480 940.813904,292.362579 
	C940.790527,298.811951 940.046570,305.334320 938.878906,311.683472 
	C937.614197,318.559479 934.043274,321.059387 927.413818,321.055328 
	C920.749695,321.051208 917.166504,318.512268 915.945312,311.719299 
	C914.861511,305.690521 914.184875,299.502106 914.166687,293.381653 
	C913.998108,236.770691 913.952759,180.159103 914.058411,123.548042 
	C914.069458,117.610130 914.811035,111.572395 916.066101,105.765198 
	C917.440491,99.406021 921.745239,96.596718 928.014526,96.689369 
	C933.637939,96.772476 937.625977,99.570526 938.903809,105.755470 
	C940.173950,111.902817 940.386414,118.268654 941.065857,125.033340 
z"/>
<path fill="#F67214" opacity="1.000000" stroke="none" 
	d="
M267.487366,200.878998 
	C266.972839,200.564011 266.774292,200.335037 266.358307,200.000854 
	C265.994751,199.059052 266.079620,198.002884 265.592346,197.484360 
	C260.387665,191.946014 255.092407,186.492798 249.502136,180.920898 
	C247.335312,177.340454 245.782242,173.657654 243.592758,170.402954 
	C231.337051,152.184769 225.470581,131.942596 226.236389,110.229538 
	C226.750916,95.640800 232.223511,82.400963 240.705414,70.102127 
	C250.815308,55.442680 264.481018,45.861481 280.130066,38.528973 
	C286.133270,35.716103 288.038544,37.563736 288.090118,44.201515 
	C288.152466,52.236465 283.822052,57.194908 277.851593,61.535019 
	C259.162415,75.120819 251.167694,96.464745 258.225098,119.032455 
	C261.482849,129.449844 265.786163,139.950455 275.502808,147.076416 
	C277.959839,150.017059 279.648010,153.400604 282.307312,155.621170 
	C293.104736,164.637085 304.183960,173.316559 315.210663,182.055222 
	C316.338135,182.948730 317.810028,183.407654 319.469604,184.129608 
	C325.132233,189.085754 330.202118,194.283401 335.806244,198.821274 
	C356.590546,215.651016 376.457855,233.291641 392.646942,254.856522 
	C406.447418,273.239624 414.485596,293.443420 413.838470,316.484009 
	C413.495850,328.682587 409.798767,340.315796 403.906128,351.106140 
	C402.583557,353.527954 400.350555,355.588318 398.143005,352.491180 
	C392.135773,344.063049 386.194489,335.544464 380.959106,326.631775 
	C378.982086,323.266174 378.763367,318.756775 378.176880,314.705963 
	C376.385437,302.332733 369.445312,292.664551 361.830597,283.418274 
	C356.564178,277.023499 350.889648,270.958954 345.261475,264.872620 
	C344.093170,263.609222 342.325256,262.900269 340.484222,261.880310 
	C339.970886,261.563873 339.770874,261.334412 339.348846,261.003387 
	C333.917633,255.657974 328.935516,250.142303 323.363373,245.306549 
	C315.624451,238.590393 307.481232,232.335449 299.418762,226.000534 
	C297.779114,224.712204 295.729919,223.945129 293.516998,222.882751 
	C290.918518,220.531326 288.841003,218.034439 286.393402,215.978027 
	C280.298035,210.856842 274.034180,205.936157 267.487366,200.878998 
z"/>
<path fill="#F67314" opacity="1.000000" stroke="none" 
	d="
M255.989944,224.003235 
	C256.830505,228.996124 256.710236,234.418457 258.710205,238.893173 
	C262.969727,248.423447 267.399200,258.130524 273.449158,266.550812 
	C283.473358,280.502411 297.118225,291.073730 310.514496,301.688416 
	C320.237640,309.392639 330.103241,316.919067 339.977356,324.430023 
	C346.016144,329.023560 352.191223,333.437836 358.651306,338.359314 
	C359.813965,343.468445 364.558258,347.873260 370.000000,349.001221 
	C373.801025,352.906586 377.602051,356.811951 381.700775,361.279938 
	C382.106262,368.557037 385.332855,372.556122 391.001648,373.001221 
	C394.004608,377.419739 397.007568,381.838287 399.704041,386.783508 
	C395.068420,390.607117 397.960236,394.438507 399.390564,397.416656 
	C400.139587,398.976257 403.701477,399.184906 405.993011,400.003662 
	C407.341309,405.717041 408.689636,411.430420 409.712341,417.733612 
	C404.817383,424.749817 405.949341,430.714050 411.983765,432.007172 
	C411.988068,432.449127 411.992340,432.891083 411.660950,433.715881 
	C411.551025,435.066254 411.776733,436.033722 412.002441,437.001221 
	C411.864868,442.135956 411.727295,447.270721 410.892273,452.754089 
	C407.748047,453.403351 405.307770,453.781372 402.853088,453.987640 
	C398.458252,454.356903 396.770172,457.156189 397.686920,461.492554 
	C398.720306,466.380829 401.965576,468.959442 406.022400,471.005829 
	C403.715546,475.803314 401.426758,480.609680 399.087494,485.391296 
	C398.579407,486.429810 397.890137,487.379700 396.710938,488.684570 
	C392.544006,488.631592 388.797516,488.777679 385.396149,487.764862 
	C381.321777,486.551605 376.281952,486.764923 373.959045,481.952789 
	C375.271149,475.230743 376.583252,468.508728 378.295593,461.339294 
	C382.591797,456.470459 383.013580,445.560089 379.337830,441.541901 
	C378.896362,441.059265 377.816589,441.160553 377.032684,440.991180 
	C377.019104,440.244232 377.005524,439.497314 377.265137,438.140167 
	C377.030945,436.018768 376.523590,434.507538 376.016235,432.996338 
	C374.000610,426.944305 371.985016,420.892242 369.979431,414.033936 
	C369.616699,406.671112 367.021545,403.035034 361.982574,402.009155 
	C358.084961,397.541687 354.187378,393.074219 350.144958,387.921875 
	C349.359253,381.921204 345.970367,379.601196 341.011963,378.992188 
	C337.295959,376.308105 333.579926,373.624023 329.518280,370.880035 
	C328.204895,369.419556 327.237183,368.018951 326.098206,365.975098 
	C323.582550,360.947052 319.944946,358.492828 314.989807,358.005463 
	C310.249847,354.740936 305.160065,351.880493 300.835449,348.136261 
	C287.806610,336.855957 274.545471,325.762451 262.368622,313.601135 
	C248.557556,299.807617 237.345139,283.861481 231.225403,265.062744 
	C224.677567,244.948898 223.968414,224.798874 233.430664,205.161346 
	C233.924103,204.137299 234.718033,203.258026 236.129761,202.154541 
	C239.595337,201.996078 242.303253,201.994400 245.011154,201.992722 
	C245.710983,202.023911 246.410812,202.055084 247.451843,202.147079 
	C248.995071,204.367523 250.197067,206.527145 251.693924,209.226715 
	C251.795547,210.557556 251.730774,211.409317 251.389252,212.129913 
	C247.860611,219.574783 248.293777,220.722916 255.989944,224.003235 
z"/>
<path fill="#F1761D" opacity="1.000000" stroke="none" 
	d="
M372.018738,515.011414 
	C362.081451,522.997131 351.007355,528.835938 338.617615,531.842407 
	C330.280121,533.865417 321.804871,535.340881 313.362091,536.903870 
	C305.844055,538.295654 301.277710,533.856445 297.038727,528.027649 
	C300.612457,522.871216 306.247955,522.243103 311.810822,520.899780 
	C322.862244,518.231140 333.815796,515.118225 344.702454,511.833130 
	C347.464355,510.999725 349.822754,508.829163 352.828491,507.468353 
	C354.109283,508.791290 354.684601,510.354736 355.788788,510.971680 
	C360.798828,513.770935 366.013031,516.077454 372.018738,515.011414 
z"/>
<path fill="#F67314" opacity="1.000000" stroke="none" 
	d="
M372.352631,514.955566 
	C366.013031,516.077454 360.798828,513.770935 355.788788,510.971680 
	C354.684601,510.354736 354.109283,508.791290 353.145203,507.332458 
	C356.130829,504.094879 359.261627,501.188538 363.122803,498.140503 
	C368.235474,498.332123 372.617737,498.665436 377.188049,499.270569 
	C378.923462,501.704559 380.470886,503.866791 382.018311,506.028992 
	C378.907745,508.985901 375.797119,511.942749 372.352631,514.955566 
z"/>
<path fill="#F4761B" opacity="1.000000" stroke="none" 
	d="
M377.000000,498.998779 
	C372.617737,498.665436 368.235474,498.332123 363.422424,497.996216 
	C366.418182,492.692932 369.844757,487.392212 373.615173,482.022156 
	C376.281952,486.764923 381.321777,486.551605 385.396149,487.764862 
	C388.797516,488.777679 392.544006,488.631592 396.568787,488.998718 
	C396.194916,490.238800 395.389893,491.478821 393.837891,492.859985 
	C390.436066,493.009277 387.681183,492.569885 385.150909,493.135529 
	C381.762573,493.892975 376.926941,493.223114 377.000000,498.998779 
z"/>
<path fill="#F4771C" opacity="1.000000" stroke="none" 
	d="
M406.294067,470.771210 
	C401.965576,468.959442 398.720306,466.380829 397.686920,461.492554 
	C396.770172,457.156189 398.458252,454.356903 402.853088,453.987640 
	C405.307770,453.781372 407.748047,453.403351 410.604858,453.054688 
	C409.531860,458.849976 408.048767,464.693298 406.294067,470.771210 
z"/>
<path fill="#F5771B" opacity="1.000000" stroke="none" 
	d="
M377.188049,499.270569 
	C376.926941,493.223114 381.762573,493.892975 385.150909,493.135529 
	C387.681183,492.569885 390.436066,493.009277 393.551056,493.002747 
	C390.243042,497.317413 386.474945,501.630493 382.362579,505.986267 
	C380.470886,503.866791 378.923462,501.704559 377.188049,499.270569 
z"/>
<path fill="#F3781C" opacity="1.000000" stroke="none" 
	d="
M405.957031,399.632568 
	C403.701477,399.184906 400.139587,398.976257 399.390564,397.416656 
	C397.960236,394.438507 395.068420,390.607117 399.713623,387.150391 
	C401.993469,391.080872 403.957275,395.171173 405.957031,399.632568 
z"/>
<path fill="#F1741A" opacity="1.000000" stroke="none" 
	d="
M377.074585,441.407837 
	C377.816589,441.160553 378.896362,441.059265 379.337830,441.541901 
	C383.013580,445.560089 382.591797,456.470459 378.346100,460.945343 
	C377.703064,454.607361 377.409790,448.215912 377.074585,441.407837 
z"/>
<path fill="#F4771C" opacity="1.000000" stroke="none" 
	d="
M411.991791,431.544922 
	C405.949341,430.714050 404.817383,424.749817 409.719971,418.152588 
	C410.702118,422.348755 411.350983,426.715698 411.991791,431.544922 
z"/>
<path fill="#F4771D" opacity="1.000000" stroke="none" 
	d="
M390.967346,372.651794 
	C385.332855,372.556122 382.106262,368.557037 381.997803,361.430511 
	C384.975769,364.779755 387.954407,368.541046 390.967346,372.651794 
z"/>
<path fill="#F3761D" opacity="1.000000" stroke="none" 
	d="
M362.023743,402.359131 
	C367.021545,403.035034 369.616699,406.671112 369.976257,413.638916 
	C367.330292,410.269806 364.697601,406.489471 362.023743,402.359131 
z"/>
<path fill="#F3771C" opacity="1.000000" stroke="none" 
	d="
M369.859222,348.699585 
	C364.558258,347.873260 359.813965,343.468445 358.995850,338.406311 
	C359.409454,338.039154 359.824799,338.051758 360.546844,338.108124 
	C363.808533,341.567261 366.763489,344.982605 369.859222,348.699585 
z"/>
<path fill="#F3771E" opacity="1.000000" stroke="none" 
	d="
M341.152283,379.293274 
	C345.970367,379.601196 349.359253,381.921204 349.998962,387.620972 
	C347.096039,385.201416 344.194336,382.397888 341.152283,379.293274 
z"/>
<path fill="#F1741A" opacity="1.000000" stroke="none" 
	d="
M376.010742,433.383362 
	C376.523590,434.507538 377.030945,436.018768 377.264771,437.766632 
	C376.662598,436.592316 376.333923,435.181335 376.010742,433.383362 
z"/>
<path fill="#F4771C" opacity="1.000000" stroke="none" 
	d="
M412.006653,436.625610 
	C411.776733,436.033722 411.551025,435.066254 411.658569,434.047363 
	C411.998169,434.747345 412.004486,435.498657 412.006653,436.625610 
z"/>
<path fill="#EEEEEE" opacity="1.000000" stroke="none" 
	d="
M806.270813,457.445862 
	C808.462891,456.386597 810.614624,454.959869 812.446899,455.292572 
	C813.621582,455.505890 815.111755,458.309113 815.120300,459.958282 
	C815.222107,479.556671 815.129456,499.156952 814.921204,518.754944 
	C814.891968,521.500061 813.740601,524.119324 810.226257,524.056580 
	C806.688782,523.993469 805.813354,521.439331 805.819946,518.579407 
	C805.866455,498.327484 805.993652,478.075745 806.270813,457.445862 
z"/>
<path fill="#F6F6F6" opacity="1.000000" stroke="none" 
	d="
M1455.678223,523.880615 
	C1450.516357,524.141602 1449.932861,520.771606 1449.892578,517.281494 
	C1449.724976,502.807007 1449.654297,488.331238 1449.601929,473.855713 
	C1449.585693,469.365326 1449.670166,464.871643 1449.840820,460.384491 
	C1449.958496,457.292908 1451.063477,454.701233 1454.656738,454.540924 
	C1458.506714,454.369171 1459.376709,457.143066 1459.380737,460.190338 
	C1459.405640,479.314209 1459.445801,498.439636 1459.172974,517.560120 
	C1459.143066,519.652405 1457.152100,521.716675 1455.678223,523.880615 
z"/>
<path fill="#F1741C" opacity="1.000000" stroke="none" 
	d="
M244.860870,201.689453 
	C242.303253,201.994400 239.595337,201.996078 236.435394,201.993835 
	C238.706833,195.645370 239.349869,195.600891 244.860870,201.689453 
z"/>
<path fill="#F3761D" opacity="1.000000" stroke="none" 
	d="
M315.142761,358.306091 
	C319.944946,358.492828 323.582550,360.947052 325.952026,365.683472 
	C322.416656,363.558960 318.856201,361.082855 315.142761,358.306091 
z"/>
<path fill="#F2761A" opacity="1.000000" stroke="none" 
	d="
M255.993988,223.570831 
	C248.293777,220.722916 247.860611,219.574783 251.389252,212.129913 
	C251.730774,211.409317 251.795547,210.557556 251.994995,209.386032 
	C253.333481,213.716400 254.665756,218.427429 255.993988,223.570831 
z"/>
</svg>