<svg xmlns="http://www.w3.org/2000/svg" viewBox="0 0 1200 630" role="img" aria-labelledby="title desc">
  <title id="title">Content planning framework</title>
  <desc id="desc">Abstract content strategy themed banner for a blog post.</desc>
  <defs>
    <linearGradient id="bg" x1="0" y1="0" x2="1" y2="1">
      <stop offset="0%" stop-color="#1e1b4b"/>
      <stop offset="100%" stop-color="#7c3aed"/>
    </linearGradient>
  </defs>
  <rect width="1200" height="630" fill="url(#bg)"/>
  <circle cx="1015" cy="135" r="95" fill="#c4b5fd" opacity="0.16"/>
  <rect x="110" y="120" width="980" height="390" rx="32" fill="#ffffff" opacity="0.09"/>
  <rect x="155" y="170" width="225" height="260" rx="24" fill="#ede9fe"/>
  <rect x="190" y="210" width="155" height="18" rx="9" fill="#6d28d9"/>
  <rect x="190" y="250" width="120" height="12" rx="6" fill="#a78bfa"/>
  <rect x="190" y="280" width="145" height="12" rx="6" fill="#a78bfa"/>
  <rect x="190" y="340" width="120" height="38" rx="19" fill="#f97316"/>
  <rect x="430" y="170" width="225" height="260" rx="24" fill="#faf5ff"/>
  <rect x="465" y="210" width="155" height="18" rx="9" fill="#7c3aed"/>
  <rect x="465" y="250" width="120" height="12" rx="6" fill="#c4b5fd"/>
  <rect x="465" y="280" width="145" height="12" rx="6" fill="#c4b5fd"/>
  <rect x="705" y="170" width="225" height="260" rx="24" fill="#f5f3ff"/>
  <rect x="740" y="210" width="155" height="18" rx="9" fill="#8b5cf6"/>
  <rect x="740" y="250" width="120" height="12" rx="6" fill="#ddd6fe"/>
  <rect x="740" y="280" width="145" height="12" rx="6" fill="#ddd6fe"/>
  <text x="155" y="565" fill="#ffffff" font-family="Arial, sans-serif" font-size="54" font-weight="700">Content Planning Framework</text>
</svg>
