<svg xmlns="http://www.w3.org/2000/svg" viewBox="0 0 1200 630" role="img" aria-labelledby="title desc">
  <title id="title">Modern team operations</title>
  <desc id="desc">Abstract office themed banner for a blog post.</desc>
  <defs>
    <linearGradient id="bg" x1="0" y1="0" x2="1" y2="1">
      <stop offset="0%" stop-color="#0f172a"/>
      <stop offset="100%" stop-color="#1d4ed8"/>
    </linearGradient>
  </defs>
  <rect width="1200" height="630" fill="url(#bg)"/>
  <circle cx="190" cy="120" r="90" fill="#60a5fa" opacity="0.18"/>
  <circle cx="1030" cy="520" r="130" fill="#f97316" opacity="0.18"/>
  <rect x="120" y="155" width="960" height="320" rx="30" fill="#ffffff" opacity="0.1"/>
  <rect x="160" y="195" width="250" height="18" rx="9" fill="#93c5fd"/>
  <rect x="160" y="235" width="520" height="22" rx="11" fill="#ffffff"/>
  <rect x="160" y="273" width="470" height="22" rx="11" fill="#dbeafe"/>
  <rect x="160" y="330" width="360" height="14" rx="7" fill="#cbd5e1"/>
  <rect x="160" y="356" width="390" height="14" rx="7" fill="#cbd5e1"/>
  <rect x="760" y="220" width="220" height="180" rx="24" fill="#eff6ff"/>
  <rect x="795" y="255" width="150" height="16" rx="8" fill="#1d4ed8"/>
  <rect x="795" y="287" width="120" height="12" rx="6" fill="#94a3b8"/>
  <rect x="795" y="330" width="100" height="36" rx="18" fill="#f97316"/>
  <text x="160" y="535" fill="#ffffff" font-family="Arial, sans-serif" font-size="54" font-weight="700">Modern Team Operations</text>
</svg>
