<svg xmlns="http://www.w3.org/2000/svg" viewBox="0 0 1200 630" role="img" aria-labelledby="title desc">
  <title id="title">Website performance checklist</title>
  <desc id="desc">Abstract analytics themed banner for a blog post.</desc>
  <defs>
    <linearGradient id="bg" x1="0" y1="0" x2="1" y2="1">
      <stop offset="0%" stop-color="#111827"/>
      <stop offset="100%" stop-color="#059669"/>
    </linearGradient>
  </defs>
  <rect width="1200" height="630" fill="url(#bg)"/>
  <rect x="110" y="110" width="980" height="410" rx="34" fill="#ffffff" opacity="0.09"/>
  <rect x="155" y="155" width="410" height="240" rx="24" fill="#ecfdf5"/>
  <rect x="190" y="190" width="80" height="160" rx="16" fill="#10b981"/>
  <rect x="295" y="235" width="80" height="115" rx="16" fill="#34d399"/>
  <rect x="400" y="210" width="80" height="140" rx="16" fill="#6ee7b7"/>
  <polyline points="190,330 335,250 440,280 520,215" fill="none" stroke="#064e3b" stroke-width="12" stroke-linecap="round" stroke-linejoin="round"/>
  <rect x="640" y="170" width="315" height="28" rx="14" fill="#ffffff"/>
  <rect x="640" y="220" width="260" height="18" rx="9" fill="#a7f3d0"/>
  <rect x="640" y="262" width="280" height="18" rx="9" fill="#a7f3d0"/>
  <rect x="640" y="304" width="240" height="18" rx="9" fill="#a7f3d0"/>
  <rect x="640" y="360" width="170" height="46" rx="23" fill="#f97316"/>
  <text x="155" y="565" fill="#ffffff" font-family="Arial, sans-serif" font-size="54" font-weight="700">Website Performance Checklist</text>
</svg>
